<svg width="512" height="512" xmlns="http://www.w3.org/2000/svg">
 <title>512</title>Created with Sketch (http://www.bohemiancoding.com/sketch)

 <g>
  <title>background</title>
  <rect fill="none" id="canvas_background" height="402" width="582" y="-1" x="-1"/>
 </g>
 <g>
  <title>Layer 1</title>
  <g fill-rule="evenodd" fill="none" id="Page-1">
   <g fill="#191919" id="512">
    <g id="Group">
     <path id="frame" d="m40,175.60001l20,0l0,-115.60001l392,0l0,55.60001l20,0l0,-75.60001l-432,0l0,135.60001zm412,220.83749l0,55.5625l-392,0l0,-111.375l-20,0l0,131.375l432,0l0,-75.5625l-20,0zm0,0"/>
     <path id="new" d="m67.136,298.096l-20.032,0c-2.432,0 -4.416,0.128 -5.696,1.024c-1.344,0.96 -1.984,2.496 -1.984,4.416c0,4.544 2.88,6.912 7.872,6.912l19.84,0l0,10.176l-34.304,0l0,-9.792l5.632,0l0,-0.128c-3.456,-1.856 -6.336,-5.248 -6.336,-11.136c0,-8.256 4.288,-11.648 12.736,-11.648l22.272,0l0,10.176zm-21.056,-39.744c-4.864,0.32 -7.744,2.24 -7.744,6.08c0,4.16 2.944,6.336 8.192,6.848l0,-12.928l-0.448,0zm21.952,6.208c0,11.072 -7.104,16.96 -18.112,16.96c-10.496,0 -17.92,-6.272 -17.92,-17.088c0,-11.584 7.616,-16.448 17.664,-16.448l2.688,0l0,23.296c6.144,-0.448 8.832,-2.752 8.832,-7.04c0,-4.032 -1.984,-5.312 -4.032,-5.952l0,-9.984c6.656,1.024 10.88,6.976 10.88,16.256zm-0.896,-30.144l-34.304,9.984l0,-9.792l17.28,-4.544c3.52,-0.896 7.232,-1.28 7.232,-1.28l0,-0.192c0,0 -3.776,-0.704 -7.168,-1.728l-17.344,-5.12l0,-8.256l17.344,-5.12c3.456,-1.024 7.168,-1.664 7.168,-1.664l0,-0.256c0,0 -3.776,-0.576 -7.168,-1.472l-17.344,-4.48l0,-8.896l34.304,9.92l0,9.792l-13.632,4.16c-4.16,1.28 -10.368,2.368 -10.368,2.496c0,0 6.272,1.28 10.368,2.56l13.632,4.224l0,9.664zm0,0"/>
     <path id="window" d="m479.2,141.392l-17.28,4.544c-3.52,0.896 -7.232,1.28 -7.232,1.28l0,0.192c0,0 3.776,0.704 7.168,1.728l17.344,5.12l0,8.256l-17.344,5.12c-3.456,1.024 -7.168,1.664 -7.168,1.664l0,0.256c0,0 3.776,0.576 7.168,1.472l17.344,4.48l0,8.896l-34.304,-9.92l0,-9.792l13.632,-4.16c4.16,-1.28 10.368,-2.368 10.368,-2.368c0,-0.128 -6.272,-1.408 -10.368,-2.688l-13.632,-4.224l0,-9.664l34.304,-9.984l0,9.792zm15.168,48.448l0,10.304l-9.216,0l0,-10.304l9.216,0zm-15.168,0.064l0,10.176l-34.304,0l0,-10.176l34.304,0zm-8.576,40.384c1.344,-0.96 1.984,-2.496 1.984,-4.416c0,-4.544 -2.88,-6.912 -7.872,-6.912l-19.84,0l0,-10.176l34.304,0l0,9.792l-5.632,0l0,0.128c3.456,1.856 6.336,5.248 6.336,11.136c0,8.256 -4.288,11.648 -12.736,11.648l-22.272,0l0,-10.176l20.032,0c2.432,0 4.416,-0.128 5.696,-1.024zm-7.04,42.304c6.016,0 9.408,-2.688 9.408,-6.912c0,-4.544 -3.584,-7.36 -11.072,-7.36c-6.976,0 -11.072,2.112 -11.072,7.104c0,4.672 3.712,7.168 8.64,7.168l4.096,0zm-18.688,10.048l0,-9.728l5.056,0l0,-0.128c-3.008,-1.792 -5.952,-4.864 -5.952,-10.24c0,-9.088 5.696,-14.592 17.6,-14.592c12.096,0 18.304,6.464 18.304,14.976c0,4.416 -2.048,7.808 -5.248,9.408l0,0.128l20.672,0l0,10.176l-50.432,0zm17.152,6.784c11.264,0 17.984,6.656 17.984,17.408c0,10.496 -6.656,17.344 -17.984,17.344c-11.2,0 -18.048,-7.104 -18.048,-17.408c0,-10.816 6.848,-17.344 18.048,-17.344zm0,10.496c-6.656,0 -11.2,1.92 -11.2,6.912c0,5.12 4.864,6.784 11.2,6.784c6.592,0 11.136,-1.792 11.136,-6.784c0,-5.056 -4.8,-6.912 -11.136,-6.912zm17.152,37.568l-17.28,4.544c-3.52,0.896 -7.232,1.28 -7.232,1.28l0,0.192c0,0 3.776,0.704 7.168,1.728l17.344,5.12l0,8.256l-17.344,5.12c-3.456,1.024 -7.168,1.664 -7.168,1.664l0,0.256c0,0 3.776,0.576 7.168,1.472l17.344,4.48l0,8.896l-34.304,-9.92l0,-9.792l13.632,-4.16c4.16,-1.28 10.368,-2.368 10.368,-2.368c0,-0.128 -6.272,-1.408 -10.368,-2.688l-13.632,-4.224l0,-9.664l34.304,-9.984l0,9.792zm0,0"/>
    </g>
   </g>
  </g>
  <g stroke="null" id="svg_8">
   <g stroke="null" transform="matrix(21.639332281363213,0,0,21.639332281363213,-56.04912193863129,-56.04907829286731) " id="svg_5">
    <path stroke="null" id="svg_6" d="m14.258717,7.351143l2.5,2.5l-3.5,3.5c-1.2,1.2 -1.2,2.8 0,4l5.5,-5.5l2.5,2.5l0,-7l-7,0z"/>
    <path stroke="null" id="svg_7" d="m19.258717,19.351143l-9,0c-0.6,0 -1,-0.4 -1,-1l0,-9l3,0l-2,-2l-3,0l0,11c0,1.7 1.3,3 3,3l11,0l0,-3l-2,-2l0,3z"/>
   </g>
  </g>
 </g></svg>