<?xml version="1.0" encoding="UTF-8" standalone="no"?>
<svg
   xmlns:dc="http://purl.org/dc/elements/1.1/"
   xmlns:cc="http://creativecommons.org/ns#"
   xmlns:rdf="http://www.w3.org/1999/02/22-rdf-syntax-ns#"
   xmlns:svg="http://www.w3.org/2000/svg"
   xmlns="http://www.w3.org/2000/svg"
   xmlns:sodipodi="http://sodipodi.sourceforge.net/DTD/sodipodi-0.dtd"
   xmlns:inkscape="http://www.inkscape.org/namespaces/inkscape"
   viewBox="0 0 311 311"
   id="svg2"
   version="1.1"
   inkscape:version="0.91 r13725"
   sodipodi:docname="zoomW.svg">
  <metadata
     id="metadata18">
    <rdf:RDF>
      <cc:Work
         rdf:about="">
        <dc:format>image/svg+xml</dc:format>
        <dc:type
           rdf:resource="http://purl.org/dc/dcmitype/StillImage" />
      </cc:Work>
    </rdf:RDF>
  </metadata>
  <defs
     id="defs16" />
  <sodipodi:namedview
     pagecolor="#ffffff"
     bordercolor="#666666"
     borderopacity="1"
     objecttolerance="10"
     gridtolerance="10"
     guidetolerance="10"
     inkscape:pageopacity="0"
     inkscape:pageshadow="2"
     inkscape:window-width="1861"
     inkscape:window-height="1056"
     id="namedview14"
     showgrid="false"
     inkscape:zoom="0.75884244"
     inkscape:cx="-262.90042"
     inkscape:cy="155.5"
     inkscape:window-x="59"
     inkscape:window-y="24"
     inkscape:window-maximized="1"
     inkscape:current-layer="svg2" />
  <title
     id="title4">Shape + Shape + Shape</title>
  <g
     fill-rule="evenodd"
     id="g6"
     style="fill:#cccccc">
    <path
       d="M310.95 269.56l-83.38-83.42c28.87-47.7 21.93-108.86-16.89-148.88-38.81-40.022-99.74-48.825-148.3-21.428C13.828 43.228-10.14 99.93 4.045 153.852c14.186 53.91 62.953 91.48 118.7 91.43 22.38.01 44.33-6.14 63.43-17.78l83.46 83.5 41.32-41.44zM46.88 122.72c.086-41.866 34.004-75.785 75.87-75.87 41.88.064 75.81 33.995 75.87 75.87 0 41.9-33.97 75.87-75.87 75.87-41.9 0-75.87-33.97-75.87-75.87z"
       id="path8"
       style="fill:#cccccc" />
    <path
       d="M84.486 115.13h76.024v18.75H84.486v-18.75z"
       id="path10"
       style="fill:#cccccc" />
    <path
       d="M113.13 86.486h18.75v76.024h-18.75V86.486z"
       id="path12"
       style="fill:#cccccc" />
  </g>
</svg>
